<?xml version="1.0" encoding="UTF-8" standalone="no"?>
<svg
   viewBox="0 0 100 100"
   version="1.1"
   id="svg1"
   sodipodi:docname="d20.svg"
   inkscape:version="1.4.3 (0d15f75042, 2025-12-25)"
   xmlns:inkscape="http://www.inkscape.org/namespaces/inkscape"
   xmlns:sodipodi="http://sodipodi.sourceforge.net/DTD/sodipodi-0.dtd"
   xmlns="http://www.w3.org/2000/svg"
   xmlns:svg="http://www.w3.org/2000/svg">
  <defs
     id="defs1" />
  <sodipodi:namedview
     id="namedview1"
     pagecolor="#ffffff"
     bordercolor="#666666"
     borderopacity="1.0"
     inkscape:showpageshadow="2"
     inkscape:pageopacity="0.0"
     inkscape:pagecheckerboard="0"
     inkscape:deskcolor="#d1d1d1"
     inkscape:zoom="5.734636"
     inkscape:cx="49.174874"
     inkscape:cy="55.539706"
     inkscape:current-layer="svg1"
     showgrid="false" />
  <path
     style="fill:#8e8e8e;fill-opacity:1;stroke:none;stroke-width:2;stroke-dasharray:none;stroke-opacity:1;paint-order:markers fill stroke"
     d="M 65.844636,5.4254007 22.05271,17.159412 3.945746,57.953144 33.538841,96.177558 78.668311,87.053021 95.68434,45.12947 Z"
     id="path2" />
  <path
     d="M 80.644,87.982 C 86.189756,73.974562 91.93159,60.044816 97.355,45.989 95.438731,41.677279 92.033469,38.123908 89.526894,34.104931 82.34459,23.846294 75.14117,13.602366 68,3.315 65.212627,2.4933948 60.082348,4.6632652 56.377686,5.5050832 44.255377,8.7879118 32.127319,12.049773 20.019,15.384 17.694775,19.430683 16.410349,24.027478 14.54579,28.322559 10.667526,38.103039 6.7892632,47.88352 2.911,57.664 3.7587696,62.116553 8.1878079,65.119129 10.519823,68.982898 17.780913,78.330604 25.023756,87.692656 32.343,96.995 36.639481,97.538881 40.999125,95.641975 45.330413,95.212724 56.831784,93.124045 68.345908,91.102963 79.823,88.883 l 0.490042,-0.378122 z M 77.611,84.461 C 68.009,78.458333 58.407,72.455667 48.805,66.453 59.607333,58.052333 70.409667,49.651667 81.212,41.251 80.011667,55.654333 78.811333,70.057667 77.611,84.461 Z M 46.817,63.709 C 43.165667,50.32 39.514333,36.931 35.863,23.542 50.469,28.411333 65.075,33.280667 79.681,38.15 68.726333,46.669667 57.771667,55.189333 46.817,63.709 Z M 84.668,40.542 c 2.975333,1.984 5.950667,3.968 8.926,5.952 -3.967333,9.916667 -7.934667,19.833333 -11.902,29.75 0.992,-11.900667 1.984,-23.801333 2.976,-35.702 z m 4.46,-1.096 C 85.770584,37.907728 83.56642,35.196718 82.259907,31.840184 80.973605,29.267789 79.687302,26.695395 78.401,24.123 c 3.575667,5.107667 7.151333,10.215333 10.727,15.323 z M 79.876,34.645 C 65.853,29.970667 51.83,25.296333 37.807,20.622 47.156,15.947667 56.505,11.273333 65.854,6.599 c 4.674,9.348667 9.348,18.697333 14.022,28.046 z M 33.268,19.107 c -2.161667,-0.720667 -4.323333,-1.441333 -6.485,-2.162 7.927,-2.162333 15.854,-4.324667 23.781,-6.487 -5.765333,2.883 -11.530667,5.766 -17.296,8.649 z M 21.92,18.895 c 2.89,0.963667 5.78,1.927333 8.67,2.891 -6.744333,8.670667 -13.488667,17.341333 -20.233,26.012 3.854333,-9.634333 7.708667,-19.268667 11.563,-28.903 z m 10.732,5.754 c 3.615,13.252333 7.23,26.504667 10.845,39.757 C 31.448333,61.996667 19.399667,59.587333 7.351,57.178 15.784667,46.335 24.218333,35.492 32.652,24.649 Z m 10.82,43.208 C 39.971,76.025667 36.47,84.194333 32.969,92.363 24.8,81.860333 16.631,71.357667 8.462,60.855 c 11.67,2.334 23.34,4.668 35.01,7.002 z m 3.159,1.233 c 9.275333,5.797667 18.550667,11.595333 27.826,17.393 -12.754333,2.319667 -25.508667,4.639333 -38.263,6.959 3.479,-8.117333 6.958,-16.234667 10.437,-24.352 z"
     data-reactid=".0.0.0.0.0.0"
     id="path1"
     style="fill:#000000;fill-opacity:1" />
  <text
     xml:space="preserve"
     style="font-size:50.7743px;line-height:1.25;font-family:'Adwaita Mono';-inkscape-font-specification:'Adwaita Mono, Normal';font-variant-ligatures:none;letter-spacing:0px;stroke:#ffffff;stroke-width:3.99999998;stroke-dasharray:none;stroke-opacity:1"
     x="24.185896"
     y="67.602943"
     id="text1"
     transform="matrix(1.0023349,0.00878874,-0.00841752,0.99759674,0,0)"><tspan
       sodipodi:role="line"
       id="tspan1"
       x="24.185896"
       y="67.602943"
       style="font-style:normal;font-variant:normal;font-weight:bold;font-stretch:normal;font-family:sans-serif;-inkscape-font-specification:'sans-serif Bold';stroke:#ffffff;stroke-width:3.99999998;stroke-dasharray:none;stroke-opacity:1">20</tspan></text>
</svg>
